<?xml version="1.0" standalone="no"?>
<!DOCTYPE svg PUBLIC "-//W3C//DTD SVG 20010904//EN"
 "http://www.w3.org/TR/2001/REC-SVG-20010904/DTD/svg10.dtd">
<svg version="1.0" xmlns="http://www.w3.org/2000/svg"
 width="633.000000pt" height="633.000000pt" viewBox="0 0 633.000000 633.000000"
 preserveAspectRatio="xMidYMid meet">
<metadata>
Created by potrace 1.11, written by Peter Selinger 2001-2013
</metadata>
<g transform="translate(0.000000,633.000000) scale(0.100000,-0.100000)"
fill="#000000" stroke="none">
<path d="M0 3165 l0 -3165 3165 0 3165 0 0 3165 0 3165 -3165 0 -3165 0 0
-3165z m4045 2535 c39 -6 120 -20 181 -31 l111 -22 6 -401 c3 -220 3 -404 -1
-407 -4 -4 -41 -1 -82 7 -164 29 -370 9 -480 -46 -79 -40 -141 -111 -170 -197
-20 -59 -24 -93 -28 -250 l-4 -183 343 -2 344 -3 0 -375 0 -375 -340 -5 -340
-5 -3 -1388 -2 -1387 -543 2 -542 3 -3 1388 -2 1387 -260 0 -260 0 0 374 c0
332 2 375 16 380 9 3 126 6 260 6 l244 0 0 198 c0 203 9 315 36 437 96 439
405 749 859 858 52 13 92 20 235 41 55 8 359 5 425 -4z"/>
</g>
</svg>
