<?xml version="1.0" standalone="no"?>
<!DOCTYPE svg PUBLIC "-//W3C//DTD SVG 20010904//EN"
 "http://www.w3.org/TR/2001/REC-SVG-20010904/DTD/svg10.dtd">
<svg version="1.0" xmlns="http://www.w3.org/2000/svg"
 width="633.000000pt" height="633.000000pt" viewBox="0 0 633.000000 633.000000"
 preserveAspectRatio="xMidYMid meet">
<metadata>
Created by potrace 1.11, written by Peter Selinger 2001-2013
</metadata>
<g transform="translate(0.000000,633.000000) scale(0.100000,-0.100000)"
fill="#000000" stroke="none">
<path d="M0 3165 l0 -3165 3165 0 3165 0 0 3165 0 3165 -3165 0 -3165 0 0
-3165z m4050 2145 c58 -12 108 -25 112 -29 4 -3 8 -159 8 -346 2 -324 1 -340
-17 -337 -10 1 -77 5 -150 9 -260 12 -393 -48 -454 -203 -19 -51 -23 -82 -27
-221 l-4 -163 293 -2 294 -3 0 -320 0 -320 -292 -3 -293 -2 0 -1185 0 -1185
-465 0 -465 0 0 1185 0 1185 -212 0 c-117 0 -219 4 -226 8 -9 7 -12 78 -10
323 l3 314 223 3 222 2 0 193 c0 274 30 430 117 600 107 212 298 373 543 457
153 53 283 69 510 65 142 -2 209 -8 290 -25z"/>
</g>
</svg>
